999
DXF created by Inkscape
  0
SECTION
  2
HEADER
  9
$ACADVER
  1
AC1014
  9
$HANDSEED
  5
FFFF
  9
$MEASUREMENT
 70
     1
  0
ENDSEC
  0
SECTION
  2
TABLES
  0
TABLE
  2
VPORT
  5
8
330
0
100
AcDbSymbolTable
 70
     4
  0
VPORT
  5
2E
330
8
100
AcDbSymbolTableRecord
100
AcDbViewportTableRecord
  2
*ACTIVE
 70
     0
 10
0.0
 20
0.0
 11
1.0
 21
1.0
 12
210.0
 22
148.5
 13
0.0
 23
0.0
 14
10.0
 24
10.0
 15
10.0
 25
10.0
 16
0.0
 26
0.0
 36
1.0
 17
0.0
 27
0.0
 37
0.0
 40
341.0
 41
1.24
 42
50.0
 43
0.0
 44
0.0
 50
0.0
 51
0.0
 71
     0
 72
   100
 73
     1
 74
     3
 75
     0
 76
     0
 77
     0
 78
     0
  0
ENDTAB
  0
TABLE
  2
LTYPE
  5
5
330
0
100
AcDbSymbolTable
 70
     1
  0
LTYPE
  5
14
330
5
100
AcDbSymbolTableRecord
100
AcDbLinetypeTableRecord
  2
BYBLOCK
 70
     0
  3

 72
    65
 73
     0
 40
0.0
  0
LTYPE
  5
15
330
5
100
AcDbSymbolTableRecord
100
AcDbLinetypeTableRecord
  2
BYLAYER
 70
     0
  3

 72
    65
 73
     0
 40
0.0
  0
LTYPE
  5
16
330
5
100
AcDbSymbolTableRecord
100
AcDbLinetypeTableRecord
  2
CONTINUOUS
 70
     0
  3
Solid line
 72
    65
 73
     0
 40
0.0
  0
ENDTAB
  0
TABLE
  2
LAYER
  5
2
100
AcDbSymbolTable
 70
3
  0
LAYER
  5
50
100
AcDbSymbolTableRecord
100
AcDbLayerTableRecord
  2
0
 70
0
  6
CONTINUOUS
  0
LAYER
  5
51
100
AcDbSymbolTableRecord
100
AcDbLayerTableRecord
  2
CENTER
 70
0
  6
CONTINUOUS
  0
LAYER
  5
52
100
AcDbSymbolTableRecord
100
AcDbLayerTableRecord
  2
DEFPOINTS
 70
0
  6
CONTINUOUS
  0
ENDTAB
  0
TABLE
  2
STYLE
  5
3
330
0
100
AcDbSymbolTable
 70
     1
  0
STYLE
  5
11
330
3
100
AcDbSymbolTableRecord
100
AcDbTextStyleTableRecord
  2
STANDARD
 70
     0
 40
0.0
 41
1.0
 50
0.0
 71
     0
 42
2.5
  3
txt
  4

  0
ENDTAB
  0
TABLE
  2
VIEW
  5
6
330
0
100
AcDbSymbolTable
 70
     0
  0
ENDTAB
  0
TABLE
  2
UCS
  5
7
330
0
100
AcDbSymbolTable
 70
     0
  0
ENDTAB
  0
TABLE
  2
APPID
  5
9
330
0
100
AcDbSymbolTable
 70
     2
  0
APPID
  5
12
330
9
100
AcDbSymbolTableRecord
100
AcDbRegAppTableRecord
  2
ACAD
 70
     0
  0
ENDTAB
  0
TABLE
  2
DIMSTYLE
  5
A
330
0
100
AcDbSymbolTable
 70
     1
  0
DIMSTYLE
105
27
330
A
100
AcDbSymbolTableRecord
100
AcDbDimStyleTableRecord
  2
ISO-25
 70
     0
  3

  4

  5

  6

  7

 40
1.0
 41
2.5
 42
0.625
 43
3.75
 44
1.25
 45
0.0
 46
0.0
 47
0.0
 48
0.0
140
2.5
141
2.5
142
0.0
143
0.03937007874016
144
1.0
145
0.0
146
1.0
147
0.625
 71
     0
 72
     0
 73
     0
 74
     0
 75
     0
 76
     0
 77
     1
 78
     8
170
     0
171
     3
172
     1
173
     0
174
     0
175
     0
176
     0
177
     0
178
     0
270
     2
271
     2
272
     2
273
     2
274
     3
340
11
275
     0
280
     0
281
     0
282
     0
283
     0
284
     8
285
     0
286
     0
287
     3
288
     0
  0
ENDTAB
  0
TABLE
  2
BLOCK_RECORD
  5
1
330
0
100
AcDbSymbolTable
 70
     1
  0
BLOCK_RECORD
  5
1F
330
1
100
AcDbSymbolTableRecord
100
AcDbBlockTableRecord
  2
*MODEL_SPACE
  0
BLOCK_RECORD
  5
1B
330
1
100
AcDbSymbolTableRecord
100
AcDbBlockTableRecord
  2
*PAPER_SPACE
  0
ENDTAB
  0
ENDSEC
  0
SECTION
  2
BLOCKS
  0
BLOCK
  5
20
330
1F
100
AcDbEntity
  8
0
100
AcDbBlockBegin
  2
*MODEL_SPACE
 70
     0
 10
0.0
 20
0.0
 30
0.0
  3
*MODEL_SPACE
  1

  0
ENDBLK
  5
21
330
1F
100
AcDbEntity
  8
0
100
AcDbBlockEnd
  0
BLOCK
  5
1C
330
1B
100
AcDbEntity
 67
     1
  8
0
100
AcDbBlockBegin
  2
*PAPER_SPACE
  1

  0
ENDBLK
  5
1D
330
1B
100
AcDbEntity
 67
     1
  8
0
100
AcDbBlockEnd
  0
ENDSEC
  0
SECTION
  2
ENTITIES
  0
LWPOLYLINE
  5
100
100
AcDbEntity
  8
0
 62
7
100
AcDbPolyline
 90
65
 70
0
 10
2.099983
 20
-0.000676
 30
0.0
 10
2.088479
 20
0.204104
 30
0.0
 10
2.054847
 20
0.405244
 30
0.0
 10
2.000408
 20
0.601417
 30
0.0
 10
1.926483
 20
0.791324
 30
0.0
 10
1.834390
 20
0.973612
 30
0.0
 10
1.725452
 20
1.146981
 30
0.0
 10
1.600987
 20
1.310105
 30
0.0
 10
1.462316
 20
1.461658
 30
0.0
 10
1.310761
 20
1.600314
 30
0.0
 10
1.147640
 20
1.724802
 30
0.0
 10
0.974274
 20
1.833740
 30
0.0
 10
0.791983
 20
1.925829
 30
0.0
 10
0.602089
 20
1.999743
 30
0.0
 10
0.405910
 20
2.054184
 30
0.0
 10
0.204785
 20
2.088502
 30
0.0
 10
0.000000
 20
2.099989
 30
0.0
 10
-0.204785
 20
2.088418
 30
0.0
 10
-0.405928
 20
2.054777
 30
0.0
 10
-0.602106
 20
2.000336
 30
0.0
 10
-0.792001
 20
1.926422
 30
0.0
 10
-0.974291
 20
1.834333
 30
0.0
 10
-1.147657
 20
1.725395
 30
0.0
 10
-1.310778
 20
1.600907
 30
0.0
 10
-1.462334
 20
1.462251
 30
0.0
 10
-1.601005
 20
1.310698
 30
0.0
 10
-1.725469
 20
1.147573
 30
0.0
 10
-1.834408
 20
0.974204
 30
0.0
 10
-1.926500
 20
0.791917
 30
0.0
 10
-2.000426
 20
0.602010
 30
0.0
 10
-2.054865
 20
0.405837
 30
0.0
 10
-2.088496
 20
0.204697
 30
0.0
 10
-2.100000
 20
-0.000083
 30
0.0
 10
-2.088496
 20
-0.204864
 30
0.0
 10
-2.054865
 20
-0.406004
 30
0.0
 10
-2.000426
 20
-0.602176
 30
0.0
 10
-1.926500
 20
-0.792084
 30
0.0
 10
-1.834408
 20
-0.974371
 30
0.0
 10
-1.725469
 20
-1.147740
 30
0.0
 10
-1.601005
 20
-1.310864
 30
0.0
 10
-1.462334
 20
-1.462418
 30
0.0
 10
-1.310778
 20
-1.601074
 30
0.0
 10
-1.147657
 20
-1.725562
 30
0.0
 10
-0.974291
 20
-1.834500
 30
0.0
 10
-0.792001
 20
-1.926589
 30
0.0
 10
-0.602106
 20
-2.000503
 30
0.0
 10
-0.405928
 20
-2.054943
 30
0.0
 10
-0.204785
 20
-2.088584
 30
0.0
 10
-0.000000
 20
-2.099873
 30
0.0
 10
0.204785
 20
-2.088302
 30
0.0
 10
0.405928
 20
-2.054661
 30
0.0
 10
0.602106
 20
-2.000220
 30
0.0
 10
0.792001
 20
-1.926306
 30
0.0
 10
0.974291
 20
-1.834217
 30
0.0
 10
1.147657
 20
-1.725280
 30
0.0
 10
1.310778
 20
-1.600791
 30
0.0
 10
1.462334
 20
-1.462136
 30
0.0
 10
1.601005
 20
-1.310582
 30
0.0
 10
1.725469
 20
-1.147458
 30
0.0
 10
1.834408
 20
-0.974089
 30
0.0
 10
1.926500
 20
-0.791801
 30
0.0
 10
2.000426
 20
-0.601894
 30
0.0
 10
2.054865
 20
-0.405721
 30
0.0
 10
2.088496
 20
-0.204582
 30
0.0
 10
2.099983
 20
-0.000676
 30
0.0
  0
LWPOLYLINE
  5
101
100
AcDbEntity
  8
0
 62
7
100
AcDbPolyline
 90
851
 70
0
 10
-3.933004
 20
-0.401657
 30
0.0
 10
-3.918441
 20
-0.376540
 30
0.0
 10
-3.903879
 20
-0.351422
 30
0.0
 10
-3.889316
 20
-0.326304
 30
0.0
 10
-3.874753
 20
-0.301186
 30
0.0
 10
-3.860191
 20
-0.276068
 30
0.0
 10
-3.845628
 20
-0.250951
 30
0.0
 10
-3.831065
 20
-0.225833
 30
0.0
 10
-3.816503
 20
-0.200715
 30
0.0
 10
-3.801940
 20
-0.175597
 30
0.0
 10
-3.787377
 20
-0.150480
 30
0.0
 10
-3.772815
 20
-0.125362
 30
0.0
 10
-3.758252
 20
-0.100244
 30
0.0
 10
-3.743689
 20
-0.075126
 30
0.0
 10
-3.729127
 20
-0.050008
 30
0.0
 10
-3.714564
 20
-0.024891
 30
0.0
 10
-3.700001
 20
0.000227
 30
0.0
 10
-3.699991
 20
0.003049
 30
0.0
 10
-3.714554
 20
0.028167
 30
0.0
 10
-3.729117
 20
0.053285
 30
0.0
 10
-3.743679
 20
0.078403
 30
0.0
 10
-3.758242
 20
0.103520
 30
0.0
 10
-3.772805
 20
0.128638
 30
0.0
 10
-3.787367
 20
0.153756
 30
0.0
 10
-3.801930
 20
0.178874
 30
0.0
 10
-3.816493
 20
0.203992
 30
0.0
 10
-3.831055
 20
0.229109
 30
0.0
 10
-3.845618
 20
0.254227
 30
0.0
 10
-3.860181
 20
0.279345
 30
0.0
 10
-3.874743
 20
0.304463
 30
0.0
 10
-3.889306
 20
0.329580
 30
0.0
 10
-3.903869
 20
0.354698
 30
0.0
 10
-3.918431
 20
0.379816
 30
0.0
 10
-3.932994
 20
0.404934
 30
0.0
 10
-3.932989
 20
0.404934
 30
0.0
 10
-3.940934
 20
0.419327
 30
0.0
 10
-3.948399
 20
0.434003
 30
0.0
 10
-3.955378
 20
0.448678
 30
0.0
 10
-3.961869
 20
0.463636
 30
0.0
 10
-3.967866
 20
0.478876
 30
0.0
 10
-3.973367
 20
0.494398
 30
0.0
 10
-3.978362
 20
0.509920
 30
0.0
 10
-3.982852
 20
0.525725
 30
0.0
 10
-3.986832
 20
0.541529
 30
0.0
 10
-3.990295
 20
0.557616
 30
0.0
 10
-3.993235
 20
0.573703
 30
0.0
 10
-3.995662
 20
0.589789
 30
0.0
 10
-3.997553
 20
0.606158
 30
0.0
 10
-3.998908
 20
0.622527
 30
0.0
 10
-3.999726
 20
0.638896
 30
0.0
 10
-3.999999
 20
0.655265
 30
0.0
 10
-4.000001
 20
0.655491
 30
0.0
 10
-4.000001
 20
0.798352
 30
0.0
 10
-4.000001
 20
0.941212
 30
0.0
 10
-4.000001
 20
1.084073
 30
0.0
 10
-4.000001
 20
1.226934
 30
0.0
 10
-4.000001
 20
1.369795
 30
0.0
 10
-4.000001
 20
1.512656
 30
0.0
 10
-4.000001
 20
1.655517
 30
0.0
 10
-4.000001
 20
1.798350
 30
0.0
 10
-4.000001
 20
1.941210
 30
0.0
 10
-4.000001
 20
2.084071
 30
0.0
 10
-4.000001
 20
2.226932
 30
0.0
 10
-4.000001
 20
2.369793
 30
0.0
 10
-4.000001
 20
2.512654
 30
0.0
 10
-4.000001
 20
2.655515
 30
0.0
 10
-4.000001
 20
2.798376
 30
0.0
 10
-4.000001
 20
2.941237
 30
0.0
 10
-3.999981
 20
2.941237
 30
0.0
 10
-4.191272
 20
3.132527
 30
0.0
 10
-4.382563
 20
3.323817
 30
0.0
 10
-4.573855
 20
3.515107
 30
0.0
 10
-4.765146
 20
3.706398
 30
0.0
 10
-4.956437
 20
3.897688
 30
0.0
 10
-5.147729
 20
4.088978
 30
0.0
 10
-5.339020
 20
4.280268
 30
0.0
 10
-5.530311
 20
4.471558
 30
0.0
 10
-5.721602
 20
4.662849
 30
0.0
 10
-5.912894
 20
4.854139
 30
0.0
 10
-6.104185
 20
5.045429
 30
0.0
 10
-6.295476
 20
5.236719
 30
0.0
 10
-6.486767
 20
5.428010
 30
0.0
 10
-6.678059
 20
5.619300
 30
0.0
 10
-6.869350
 20
5.810590
 30
0.0
 10
-7.060641
 20
6.001880
 30
0.0
 10
-7.060662
 20
6.001880
 30
0.0
 10
-7.119370
 20
6.001880
 30
0.0
 10
-7.178079
 20
6.001880
 30
0.0
 10
-7.236788
 20
6.001880
 30
0.0
 10
-7.295497
 20
6.001880
 30
0.0
 10
-7.354205
 20
6.001880
 30
0.0
 10
-7.412914
 20
6.001880
 30
0.0
 10
-7.471623
 20
6.001880
 30
0.0
 10
-7.530332
 20
6.001880
 30
0.0
 10
-7.589040
 20
6.001880
 30
0.0
 10
-7.647749
 20
6.001880
 30
0.0
 10
-7.706458
 20
6.001880
 30
0.0
 10
-7.765166
 20
6.001880
 30
0.0
 10
-7.823875
 20
6.001880
 30
0.0
 10
-7.882584
 20
6.001880
 30
0.0
 10
-7.941293
 20
6.001880
 30
0.0
 10
-8.000001
 20
6.001880
 30
0.0
 10
-8.000001
 20
6.001880
 30
0.0
 10
-8.000001
 20
5.833140
 30
0.0
 10
-8.000001
 20
5.664371
 30
0.0
 10
-8.000001
 20
5.495630
 30
0.0
 10
-8.000001
 20
5.326889
 30
0.0
 10
-8.000001
 20
5.158120
 30
0.0
 10
-8.000001
 20
4.989380
 30
0.0
 10
-8.000001
 20
4.820639
 30
0.0
 10
-8.000001
 20
4.651870
 30
0.0
 10
-8.000001
 20
4.483130
 30
0.0
 10
-8.000001
 20
4.314389
 30
0.0
 10
-8.000001
 20
4.145648
 30
0.0
 10
-8.000001
 20
3.976879
 30
0.0
 10
-8.000001
 20
3.808139
 30
0.0
 10
-8.000001
 20
3.639398
 30
0.0
 10
-8.000001
 20
3.470629
 30
0.0
 10
-8.000001
 20
3.301888
 30
0.0
 10
-7.999999
 20
3.301663
 30
0.0
 10
-8.001636
 20
3.272396
 30
0.0
 10
-8.006439
 20
3.243666
 30
0.0
 10
-8.014217
 20
3.215726
 30
0.0
 10
-8.024778
 20
3.188633
 30
0.0
 10
-8.037935
 20
3.162668
 30
0.0
 10
-8.053497
 20
3.137833
 30
0.0
 10
-8.071277
 20
3.114408
 30
0.0
 10
-8.091086
 20
3.092677
 30
0.0
 10
-8.112738
 20
3.072922
 30
0.0
 10
-8.136041
 20
3.055142
 30
0.0
 10
-8.160809
 20
3.039619
 30
0.0
 10
-8.186850
 20
3.026355
 30
0.0
 10
-8.213977
 20
3.015913
 30
0.0
 10
-8.242002
 20
3.008010
 30
0.0
 10
-8.270736
 20
3.003213
 30
0.0
 10
-8.299992
 20
3.000390
 30
0.0
 10
-8.300001
 20
3.003213
 30
0.0
 10
-8.387501
 20
3.003213
 30
0.0
 10
-8.475002
 20
3.003213
 30
0.0
 10
-8.562501
 20
3.003213
 30
0.0
 10
-8.650001
 20
3.003213
 30
0.0
 10
-8.737502
 20
3.003213
 30
0.0
 10
-8.825001
 20
3.003213
 30
0.0
 10
-8.912502
 20
3.003213
 30
0.0
 10
-9.000001
 20
3.003213
 30
0.0
 10
-9.087501
 20
3.003213
 30
0.0
 10
-9.175002
 20
3.003213
 30
0.0
 10
-9.262501
 20
3.003213
 30
0.0
 10
-9.350001
 20
3.003213
 30
0.0
 10
-9.437502
 20
3.003213
 30
0.0
 10
-9.525001
 20
3.003213
 30
0.0
 10
-9.612502
 20
3.003213
 30
0.0
 10
-9.700001
 20
3.003213
 30
0.0
 10
-9.699992
 20
3.000390
 30
0.0
 10
-9.729247
 20
3.003213
 30
0.0
 10
-9.757982
 20
3.008010
 30
0.0
 10
-9.786006
 20
3.015913
 30
0.0
 10
-9.813133
 20
3.026355
 30
0.0
 10
-9.839174
 20
3.039619
 30
0.0
 10
-9.863942
 20
3.055142
 30
0.0
 10
-9.887245
 20
3.072922
 30
0.0
 10
-9.908897
 20
3.092677
 30
0.0
 10
-9.928706
 20
3.114408
 30
0.0
 10
-9.946486
 20
3.137833
 30
0.0
 10
-9.962048
 20
3.162668
 30
0.0
 10
-9.975205
 20
3.188633
 30
0.0
 10
-9.985766
 20
3.215726
 30
0.0
 10
-9.993541
 20
3.243666
 30
0.0
 10
-9.998345
 20
3.272396
 30
0.0
 10
-9.999981
 20
3.301663
 30
0.0
 10
-10.000001
 20
3.301888
 30
0.0
 10
-10.000001
 20
3.658138
 30
0.0
 10
-10.000001
 20
4.014387
 30
0.0
 10
-10.000001
 20
4.370636
 30
0.0
 10
-10.000001
 20
4.726885
 30
0.0
 10
-10.000001
 20
5.083134
 30
0.0
 10
-10.000001
 20
5.439383
 30
0.0
 10
-10.000001
 20
5.795632
 30
0.0
 10
-10.000001
 20
6.151881
 30
0.0
 10
-10.000001
 20
6.508159
 30
0.0
 10
-10.000001
 20
6.864408
 30
0.0
 10
-10.000001
 20
7.220657
 30
0.0
 10
-10.000001
 20
7.576906
 30
0.0
 10
-10.000001
 20
7.933155
 30
0.0
 10
-10.000001
 20
8.289404
 30
0.0
 10
-10.000001
 20
8.645653
 30
0.0
 10
-10.000001
 20
9.001902
 30
0.0
 10
-10.000017
 20
9.001902
 30
0.0
 10
-9.994539
 20
9.099410
 30
0.0
 10
-9.978523
 20
9.195196
 30
0.0
 10
-9.952601
 20
9.288612
 30
0.0
 10
-9.917398
 20
9.379036
 30
0.0
 10
-9.873544
 20
9.465848
 30
0.0
 10
-9.821669
 20
9.548398
 30
0.0
 10
-9.762400
 20
9.626093
 30
0.0
 10
-9.696366
 20
9.698258
 30
0.0
 10
-9.624197
 20
9.764298
 30
0.0
 10
-9.546520
 20
9.823564
 30
0.0
 10
-9.463965
 20
9.875437
 30
0.0
 10
-9.377160
 20
9.919294
 30
0.0
 10
-9.286734
 20
9.954487
 30
0.0
 10
-9.193316
 20
9.980452
 30
0.0
 10
-9.097534
 20
9.996538
 30
0.0
 10
-9.000017
 20
10.001900
 30
0.0
 10
-9.000001
 20
10.001900
 30
0.0
 10
-7.875001
 20
10.001900
 30
0.0
 10
-6.750001
 20
10.001900
 30
0.0
 10
-5.625002
 20
10.001900
 30
0.0
 10
-4.500001
 20
10.001900
 30
0.0
 10
-3.375002
 20
10.001900
 30
0.0
 10
-2.250001
 20
10.001900
 30
0.0
 10
-1.125001
 20
10.001900
 30
0.0
 10
-0.000001
 20
10.001900
 30
0.0
 10
1.124999
 20
10.001900
 30
0.0
 10
2.249999
 20
10.001900
 30
0.0
 10
3.374999
 20
10.001900
 30
0.0
 10
4.499999
 20
10.001900
 30
0.0
 10
5.624999
 20
10.001900
 30
0.0
 10
6.749999
 20
10.001900
 30
0.0
 10
7.874999
 20
10.001900
 30
0.0
 10
8.999999
 20
10.001900
 30
0.0
 10
8.999983
 20
10.001900
 30
0.0
 10
9.097500
 20
9.996538
 30
0.0
 10
9.193281
 20
9.980452
 30
0.0
 10
9.286700
 20
9.954487
 30
0.0
 10
9.377126
 20
9.919294
 30
0.0
 10
9.463930
 20
9.875437
 30
0.0
 10
9.546486
 20
9.823564
 30
0.0
 10
9.624162
 20
9.764298
 30
0.0
 10
9.696332
 20
9.698258
 30
0.0
 10
9.762365
 20
9.626093
 30
0.0
 10
9.821634
 20
9.548398
 30
0.0
 10
9.873510
 20
9.465848
 30
0.0
 10
9.917363
 20
9.379036
 30
0.0
 10
9.952566
 20
9.288612
 30
0.0
 10
9.978488
 20
9.195196
 30
0.0
 10
9.994504
 20
9.099410
 30
0.0
 10
9.999982
 20
9.001902
 30
0.0
 10
9.999999
 20
9.001902
 30
0.0
 10
9.999999
 20
7.876908
 30
0.0
 10
9.999999
 20
6.751886
 30
0.0
 10
9.999999
 20
5.626892
 30
0.0
 10
9.999999
 20
4.501897
 30
0.0
 10
9.999999
 20
3.376903
 30
0.0
 10
9.999999
 20
2.251881
 30
0.0
 10
9.999999
 20
1.126886
 30
0.0
 10
9.999999
 20
0.001892
 30
0.0
 10
9.999999
 20
-1.123102
 30
0.0
 10
9.999999
 20
-2.248124
 30
0.0
 10
9.999999
 20
-3.373119
 30
0.0
 10
9.999999
 20
-4.498113
 30
0.0
 10
9.999999
 20
-5.623107
 30
0.0
 10
9.999999
 20
-6.748130
 30
0.0
 10
9.999999
 20
-7.873124
 30
0.0
 10
9.999999
 20
-8.998118
 30
0.0
 10
9.999982
 20
-8.998118
 30
0.0
 10
9.994504
 20
-9.095626
 30
0.0
 10
9.978488
 20
-9.191412
 30
0.0
 10
9.952566
 20
-9.284828
 30
0.0
 10
9.917363
 20
-9.375252
 30
0.0
 10
9.873510
 20
-9.462063
 30
0.0
 10
9.821634
 20
-9.544613
 30
0.0
 10
9.762365
 20
-9.622309
 30
0.0
 10
9.696332
 20
-9.694473
 30
0.0
 10
9.624162
 20
-9.760513
 30
0.0
 10
9.546486
 20
-9.819780
 30
0.0
 10
9.463930
 20
-9.871652
 30
0.0
 10
9.377126
 20
-9.915510
 30
0.0
 10
9.286700
 20
-9.950703
 30
0.0
 10
9.193281
 20
-9.976667
 30
0.0
 10
9.097500
 20
-9.992754
 30
0.0
 10
8.999983
 20
-9.998116
 30
0.0
 10
8.999999
 20
-9.998116
 30
0.0
 10
8.643749
 20
-9.998116
 30
0.0
 10
8.287499
 20
-9.998116
 30
0.0
 10
7.931248
 20
-9.998116
 30
0.0
 10
7.574999
 20
-9.998116
 30
0.0
 10
7.218749
 20
-9.998116
 30
0.0
 10
6.862499
 20
-9.998116
 30
0.0
 10
6.506249
 20
-9.998116
 30
0.0
 10
6.149999
 20
-9.998116
 30
0.0
 10
5.793748
 20
-9.998116
 30
0.0
 10
5.437499
 20
-9.998116
 30
0.0
 10
5.081249
 20
-9.998116
 30
0.0
 10
4.724999
 20
-9.998116
 30
0.0
 10
4.368749
 20
-9.998116
 30
0.0
 10
4.012498
 20
-9.998116
 30
0.0
 10
3.656248
 20
-9.998116
 30
0.0
 10
3.299998
 20
-9.998116
 30
0.0
 10
3.299990
 20
-10.000938
 30
0.0
 10
3.270735
 20
-9.998116
 30
0.0
 10
3.242000
 20
-9.993318
 30
0.0
 10
3.213975
 20
-9.985416
 30
0.0
 10
3.186848
 20
-9.974974
 30
0.0
 10
3.160807
 20
-9.961709
 30
0.0
 10
3.136040
 20
-9.946187
 30
0.0
 10
3.112736
 20
-9.928407
 30
0.0
 10
3.091084
 20
-9.908652
 30
0.0
 10
3.071275
 20
-9.886920
 30
0.0
 10
3.053495
 20
-9.863496
 30
0.0
 10
3.037933
 20
-9.838660
 30
0.0
 10
3.024776
 20
-9.812696
 30
0.0
 10
3.014215
 20
-9.785603
 30
0.0
 10
3.006440
 20
-9.757663
 30
0.0
 10
3.001637
 20
-9.728932
 30
0.0
 10
3.000000
 20
-9.699666
 30
0.0
 10
2.999990
 20
-9.699666
 30
0.0
 10
2.999990
 20
-9.612177
 30
0.0
 10
2.999990
 20
-9.524660
 30
0.0
 10
2.999990
 20
-9.437171
 30
0.0
 10
2.999990
 20
-9.349682
 30
0.0
 10
2.999990
 20
-9.262165
 30
0.0
 10
2.999990
 20
-9.174676
 30
0.0
 10
2.999990
 20
-9.087159
 30
0.0
 10
2.999990
 20
-8.999670
 30
0.0
 10
2.999990
 20
-8.912181
 30
0.0
 10
2.999990
 20
-8.824664
 30
0.0
 10
2.999990
 20
-8.737175
 30
0.0
 10
2.999990
 20
-8.649686
 30
0.0
 10
2.999990
 20
-8.562169
 30
0.0
 10
2.999990
 20
-8.474680
 30
0.0
 10
2.999990
 20
-8.387163
 30
0.0
 10
2.999990
 20
-8.299674
 30
0.0
 10
3.000000
 20
-8.299674
 30
0.0
 10
3.001637
 20
-8.270408
 30
0.0
 10
3.006440
 20
-8.241678
 30
0.0
 10
3.014215
 20
-8.213738
 30
0.0
 10
3.024776
 20
-8.186644
 30
0.0
 10
3.037933
 20
-8.160680
 30
0.0
 10
3.053495
 20
-8.135844
 30
0.0
 10
3.071275
 20
-8.112420
 30
0.0
 10
3.091084
 20
-8.090689
 30
0.0
 10
3.112736
 20
-8.070933
 30
0.0
 10
3.136040
 20
-8.053153
 30
0.0
 10
3.160807
 20
-8.037631
 30
0.0
 10
3.186848
 20
-8.024367
 30
0.0
 10
3.213975
 20
-8.013924
 30
0.0
 10
3.242000
 20
-8.006022
 30
0.0
 10
3.270735
 20
-8.001224
 30
0.0
 10
3.299990
 20
-7.998402
 30
0.0
 10
3.300000
 20
-7.998402
 30
0.0
 10
3.468750
 20
-7.998402
 30
0.0
 10
3.637500
 20
-7.998402
 30
0.0
 10
3.806250
 20
-7.998402
 30
0.0
 10
3.975000
 20
-7.998402
 30
0.0
 10
4.143750
 20
-7.998402
 30
0.0
 10
4.312500
 20
-7.998402
 30
0.0
 10
4.481250
 20
-7.998402
 30
0.0
 10
4.650000
 20
-7.998402
 30
0.0
 10
4.818750
 20
-7.998402
 30
0.0
 10
4.987500
 20
-7.998402
 30
0.0
 10
5.156250
 20
-7.998402
 30
0.0
 10
5.325000
 20
-7.998402
 30
0.0
 10
5.493750
 20
-7.998402
 30
0.0
 10
5.662500
 20
-7.998402
 30
0.0
 10
5.831250
 20
-7.998402
 30
0.0
 10
6.000000
 20
-7.998402
 30
0.0
 10
5.999990
 20
-7.998402
 30
0.0
 10
5.999990
 20
-7.939700
 30
0.0
 10
5.999990
 20
-7.880998
 30
0.0
 10
5.999990
 20
-7.822267
 30
0.0
 10
5.999990
 20
-7.763565
 30
0.0
 10
5.999990
 20
-7.704863
 30
0.0
 10
5.999990
 20
-7.646161
 30
0.0
 10
5.999990
 20
-7.587430
 30
0.0
 10
5.999990
 20
-7.528728
 30
0.0
 10
5.999990
 20
-7.470026
 30
0.0
 10
5.999990
 20
-7.411324
 30
0.0
 10
5.999990
 20
-7.352593
 30
0.0
 10
5.999990
 20
-7.293891
 30
0.0
 10
5.999990
 20
-7.235189
 30
0.0
 10
5.999990
 20
-7.176486
 30
0.0
 10
5.999990
 20
-7.117756
 30
0.0
 10
5.999990
 20
-7.059054
 30
0.0
 10
5.999979
 20
-7.059054
 30
0.0
 10
5.808688
 20
-6.867764
 30
0.0
 10
5.617397
 20
-6.676473
 30
0.0
 10
5.426105
 20
-6.485183
 30
0.0
 10
5.234814
 20
-6.293893
 30
0.0
 10
5.043523
 20
-6.102603
 30
0.0
 10
4.852231
 20
-5.911312
 30
0.0
 10
4.660940
 20
-5.720022
 30
0.0
 10
4.469649
 20
-5.528732
 30
0.0
 10
4.278358
 20
-5.337414
 30
0.0
 10
4.087066
 20
-5.146123
 30
0.0
 10
3.895775
 20
-4.954833
 30
0.0
 10
3.704484
 20
-4.763543
 30
0.0
 10
3.513193
 20
-4.572253
 30
0.0
 10
3.321901
 20
-4.380962
 30
0.0
 10
3.130610
 20
-4.189672
 30
0.0
 10
2.939319
 20
-3.998382
 30
0.0
 10
2.939341
 20
-3.995560
 30
0.0
 10
2.911881
 20
-3.995560
 30
0.0
 10
2.884423
 20
-3.995560
 30
0.0
 10
2.856966
 20
-3.995560
 30
0.0
 10
2.829506
 20
-3.995560
 30
0.0
 10
2.802047
 20
-3.995560
 30
0.0
 10
2.774588
 20
-3.995560
 30
0.0
 10
2.747129
 20
-3.995560
 30
0.0
 10
2.719671
 20
-3.995560
 30
0.0
 10
2.692212
 20
-3.995560
 30
0.0
 10
2.664753
 20
-3.995560
 30
0.0
 10
2.637294
 20
-3.995560
 30
0.0
 10
2.609835
 20
-3.995560
 30
0.0
 10
2.582377
 20
-3.995560
 30
0.0
 10
2.554918
 20
-3.995560
 30
0.0
 10
2.527459
 20
-3.995560
 30
0.0
 10
2.500000
 20
-3.995560
 30
0.0
 10
2.499979
 20
-3.998382
 30
0.0
 10
2.419909
 20
-3.982860
 30
0.0
 10
2.339840
 20
-3.967338
 30
0.0
 10
2.259770
 20
-3.951815
 30
0.0
 10
2.179700
 20
-3.936293
 30
0.0
 10
2.099631
 20
-3.920771
 30
0.0
 10
2.019561
 20
-3.905249
 30
0.0
 10
1.939491
 20
-3.889726
 30
0.0
 10
1.859422
 20
-3.874204
 30
0.0
 10
1.779352
 20
-3.858682
 30
0.0
 10
1.699282
 20
-3.843160
 30
0.0
 10
1.619213
 20
-3.827638
 30
0.0
 10
1.539143
 20
-3.812115
 30
0.0
 10
1.459073
 20
-3.796593
 30
0.0
 10
1.379004
 20
-3.781071
 30
0.0
 10
1.298934
 20
-3.765549
 30
0.0
 10
1.218864
 20
-3.750026
 30
0.0
 10
1.218864
 20
-3.750026
 30
0.0
 10
1.199159
 20
-3.761315
 30
0.0
 10
1.179453
 20
-3.772604
 30
0.0
 10
1.159747
 20
-3.783893
 30
0.0
 10
1.140041
 20
-3.795182
 30
0.0
 10
1.120335
 20
-3.806471
 30
0.0
 10
1.100629
 20
-3.817760
 30
0.0
 10
1.080923
 20
-3.829049
 30
0.0
 10
1.061217
 20
-3.840338
 30
0.0
 10
1.041511
 20
-3.851626
 30
0.0
 10
1.021806
 20
-3.862915
 30
0.0
 10
1.002100
 20
-3.874204
 30
0.0
 10
0.982394
 20
-3.885493
 30
0.0
 10
0.962688
 20
-3.896782
 30
0.0
 10
0.942982
 20
-3.908071
 30
0.0
 10
0.923276
 20
-3.919360
 30
0.0
 10
0.903570
 20
-3.930649
 30
0.0
 10
0.903569
 20
-3.930649
 30
0.0
 10
0.874705
 20
-3.945889
 30
0.0
 10
0.844887
 20
-3.959153
 30
0.0
 10
0.814251
 20
-3.970442
 30
0.0
 10
0.782933
 20
-3.979755
 30
0.0
 10
0.751069
 20
-3.986811
 30
0.0
 10
0.718796
 20
-3.991891
 30
0.0
 10
0.686251
 20
-3.994995
 30
0.0
 10
0.653569
 20
-3.994995
 30
0.0
 10
0.620887
 20
-3.994995
 30
0.0
 10
0.588341
 20
-3.991891
 30
0.0
 10
0.556068
 20
-3.986811
 30
0.0
 10
0.524205
 20
-3.979755
 30
0.0
 10
0.492886
 20
-3.970442
 30
0.0
 10
0.462250
 20
-3.959153
 30
0.0
 10
0.432432
 20
-3.945889
 30
0.0
 10
0.403569
 20
-3.930649
 30
0.0
 10
0.403590
 20
-3.927826
 30
0.0
 10
0.378365
 20
-3.913151
 30
0.0
 10
0.353141
 20
-3.898475
 30
0.0
 10
0.327917
 20
-3.883800
 30
0.0
 10
0.302692
 20
-3.869124
 30
0.0
 10
0.277468
 20
-3.854449
 30
0.0
 10
0.252243
 20
-3.839773
 30
0.0
 10
0.227019
 20
-3.825098
 30
0.0
 10
0.201795
 20
-3.810422
 30
0.0
 10
0.176570
 20
-3.795746
 30
0.0
 10
0.151346
 20
-3.781071
 30
0.0
 10
0.126121
 20
-3.766395
 30
0.0
 10
0.100897
 20
-3.751720
 30
0.0
 10
0.075673
 20
-3.737044
 30
0.0
 10
0.050448
 20
-3.722369
 30
0.0
 10
0.025224
 20
-3.707693
 30
0.0
 10
0.000000
 20
-3.699988
 30
0.0
 10
0.000000
 20
-3.699988
 30
0.0
 10
-0.025245
 20
-3.716075
 30
0.0
 10
-0.050469
 20
-3.730751
 30
0.0
 10
-0.075694
 20
-3.745426
 30
0.0
 10
-0.100918
 20
-3.760102
 30
0.0
 10
-0.126142
 20
-3.774777
 30
0.0
 10
-0.151367
 20
-3.789453
 30
0.0
 10
-0.176591
 20
-3.804128
 30
0.0
 10
-0.201816
 20
-3.818804
 30
0.0
 10
-0.227040
 20
-3.833480
 30
0.0
 10
-0.252264
 20
-3.848155
 30
0.0
 10
-0.277489
 20
-3.862831
 30
0.0
 10
-0.302713
 20
-3.877506
 30
0.0
 10
-0.327937
 20
-3.892182
 30
0.0
 10
-0.353162
 20
-3.906857
 30
0.0
 10
-0.378386
 20
-3.921533
 30
0.0
 10
-0.403611
 20
-3.936208
 30
0.0
 10
-0.403611
 20
-3.936208
 30
0.0
 10
-0.417914
 20
-3.944111
 30
0.0
 10
-0.432473
 20
-3.951448
 30
0.0
 10
-0.447269
 20
-3.958504
 30
0.0
 10
-0.462286
 20
-3.964995
 30
0.0
 10
-0.477507
 20
-3.970922
 30
0.0
 10
-0.492916
 20
-3.976566
 30
0.0
 10
-0.508495
 20
-3.981646
 30
0.0
 10
-0.524228
 20
-3.986162
 30
0.0
 10
-0.540098
 20
-3.990113
 30
0.0
 10
-0.556088
 20
-3.993500
 30
0.0
 10
-0.572182
 20
-3.996322
 30
0.0
 10
-0.588362
 20
-3.999144
 30
0.0
 10
-0.604611
 20
-4.001966
 30
0.0
 10
-0.620914
 20
-4.001966
 30
0.0
 10
-0.637253
 20
-4.001966
 30
0.0
 10
-0.653611
 20
-4.002248
 30
0.0
 10
-0.653589
 20
-3.999426
 30
0.0
 10
-0.796448
 20
-3.999426
 30
0.0
 10
-0.939308
 20
-3.999426
 30
0.0
 10
-1.082167
 20
-3.999426
 30
0.0
 10
-1.225026
 20
-3.999426
 30
0.0
 10
-1.367886
 20
-3.999426
 30
0.0
 10
-1.510745
 20
-3.999426
 30
0.0
 10
-1.653604
 20
-3.999426
 30
0.0
 10
-1.796464
 20
-3.999426
 30
0.0
 10
-1.939323
 20
-3.999426
 30
0.0
 10
-2.082183
 20
-3.999426
 30
0.0
 10
-2.225042
 20
-3.999426
 30
0.0
 10
-2.367901
 20
-3.999426
 30
0.0
 10
-2.510761
 20
-3.999426
 30
0.0
 10
-2.653620
 20
-3.999426
 30
0.0
 10
-2.796479
 20
-3.999426
 30
0.0
 10
-2.939339
 20
-3.999426
 30
0.0
 10
-2.939361
 20
-4.002248
 30
0.0
 10
-3.130652
 20
-4.193539
 30
0.0
 10
-3.321944
 20
-4.384829
 30
0.0
 10
-3.513235
 20
-4.576119
 30
0.0
 10
-3.704526
 20
-4.767409
 30
0.0
 10
-3.895817
 20
-4.958700
 30
0.0
 10
-4.087109
 20
-5.149990
 30
0.0
 10
-4.278400
 20
-5.341280
 30
0.0
 10
-4.469691
 20
-5.532598
 30
0.0
 10
-4.660982
 20
-5.723889
 30
0.0
 10
-4.852274
 20
-5.915179
 30
0.0
 10
-5.043565
 20
-6.106469
 30
0.0
 10
-5.234856
 20
-6.297759
 30
0.0
 10
-5.426148
 20
-6.489050
 30
0.0
 10
-5.617439
 20
-6.680340
 30
0.0
 10
-5.808730
 20
-6.871630
 30
0.0
 10
-6.000021
 20
-7.062920
 30
0.0
 10
-6.000010
 20
-7.062920
 30
0.0
 10
-6.000010
 20
-7.121622
 30
0.0
 10
-6.000010
 20
-7.180353
 30
0.0
 10
-6.000010
 20
-7.239055
 30
0.0
 10
-6.000010
 20
-7.297757
 30
0.0
 10
-6.000010
 20
-7.356460
 30
0.0
 10
-6.000010
 20
-7.415190
 30
0.0
 10
-6.000010
 20
-7.473892
 30
0.0
 10
-6.000010
 20
-7.532594
 30
0.0
 10
-6.000010
 20
-7.591297
 30
0.0
 10
-6.000010
 20
-7.650027
 30
0.0
 10
-6.000010
 20
-7.708729
 30
0.0
 10
-6.000010
 20
-7.767432
 30
0.0
 10
-6.000010
 20
-7.826134
 30
0.0
 10
-6.000010
 20
-7.884864
 30
0.0
 10
-6.000010
 20
-7.943566
 30
0.0
 10
-6.000010
 20
-8.002269
 30
0.0
 10
-5.999990
 20
-8.002269
 30
0.0
 10
-5.831240
 20
-8.002269
 30
0.0
 10
-5.662490
 20
-8.002269
 30
0.0
 10
-5.493740
 20
-8.002269
 30
0.0
 10
-5.324990
 20
-8.002269
 30
0.0
 10
-5.156240
 20
-8.002269
 30
0.0
 10
-4.987490
 20
-8.002269
 30
0.0
 10
-4.818740
 20
-8.002269
 30
0.0
 10
-4.649990
 20
-8.002269
 30
0.0
 10
-4.481240
 20
-8.002269
 30
0.0
 10
-4.312490
 20
-8.002269
 30
0.0
 10
-4.143740
 20
-8.002269
 30
0.0
 10
-3.974990
 20
-8.002269
 30
0.0
 10
-3.806240
 20
-8.002269
 30
0.0
 10
-3.637490
 20
-8.002269
 30
0.0
 10
-3.468740
 20
-8.002269
 30
0.0
 10
-3.299990
 20
-8.002269
 30
0.0
 10
-3.299990
 20
-8.002269
 30
0.0
 10
-3.270735
 20
-8.005091
 30
0.0
 10
-3.242000
 20
-8.009889
 30
0.0
 10
-3.213975
 20
-8.017791
 30
0.0
 10
-3.186848
 20
-8.028233
 30
0.0
 10
-3.160807
 20
-8.041498
 30
0.0
 10
-3.136040
 20
-8.057020
 30
0.0
 10
-3.112736
 20
-8.074800
 30
0.0
 10
-3.091084
 20
-8.094555
 30
0.0
 10
-3.071275
 20
-8.116286
 30
0.0
 10
-3.053495
 20
-8.139711
 30
0.0
 10
-3.037933
 20
-8.164546
 30
0.0
 10
-3.024776
 20
-8.190511
 30
0.0
 10
-3.014215
 20
-8.217604
 30
0.0
 10
-3.006440
 20
-8.245544
 30
0.0
 10
-3.001637
 20
-8.274274
 30
0.0
 10
-3.000000
 20
-8.303541
 30
0.0
 10
-3.000000
 20
-8.300719
 30
0.0
 10
-3.000000
 20
-8.388208
 30
0.0
 10
-3.000000
 20
-8.475725
 30
0.0
 10
-3.000000
 20
-8.563214
 30
0.0
 10
-3.000000
 20
-8.650731
 30
0.0
 10
-3.000000
 20
-8.738220
 30
0.0
 10
-3.000000
 20
-8.825708
 30
0.0
 10
-3.000000
 20
-8.913226
 30
0.0
 10
-3.000000
 20
-9.000714
 30
0.0
 10
-3.000000
 20
-9.088203
 30
0.0
 10
-3.000000
 20
-9.175720
 30
0.0
 10
-3.000000
 20
-9.263209
 30
0.0
 10
-3.000000
 20
-9.350726
 30
0.0
 10
-3.000000
 20
-9.438215
 30
0.0
 10
-3.000000
 20
-9.525704
 30
0.0
 10
-3.000000
 20
-9.613221
 30
0.0
 10
-3.000000
 20
-9.700710
 30
0.0
 10
-3.000000
 20
-9.700710
 30
0.0
 10
-3.001637
 20
-9.729977
 30
0.0
 10
-3.006440
 20
-9.758707
 30
0.0
 10
-3.014215
 20
-9.786647
 30
0.0
 10
-3.024776
 20
-9.813740
 30
0.0
 10
-3.037933
 20
-9.839705
 30
0.0
 10
-3.053495
 20
-9.864540
 30
0.0
 10
-3.071275
 20
-9.887965
 30
0.0
 10
-3.091084
 20
-9.909696
 30
0.0
 10
-3.112736
 20
-9.929451
 30
0.0
 10
-3.136040
 20
-9.947231
 30
0.0
 10
-3.160807
 20
-9.962754
 30
0.0
 10
-3.186848
 20
-9.976018
 30
0.0
 10
-3.213975
 20
-9.986460
 30
0.0
 10
-3.242000
 20
-9.994362
 30
0.0
 10
-3.270735
 20
-9.999160
 30
0.0
 10
-3.299990
 20
-10.001982
 30
0.0
 10
-3.300019
 20
-10.001982
 30
0.0
 10
-3.656269
 20
-10.001982
 30
0.0
 10
-4.012519
 20
-10.001982
 30
0.0
 10
-4.368770
 20
-10.001982
 30
0.0
 10
-4.725019
 20
-10.001982
 30
0.0
 10
-5.081269
 20
-10.001982
 30
0.0
 10
-5.437519
 20
-10.001982
 30
0.0
 10
-5.793769
 20
-10.001982
 30
0.0
 10
-6.150019
 20
-10.001982
 30
0.0
 10
-6.506270
 20
-10.001982
 30
0.0
 10
-6.862520
 20
-10.001982
 30
0.0
 10
-7.218769
 20
-10.001982
 30
0.0
 10
-7.575019
 20
-10.001982
 30
0.0
 10
-7.931269
 20
-10.001982
 30
0.0
 10
-8.287520
 20
-10.001982
 30
0.0
 10
-8.643770
 20
-10.001982
 30
0.0
 10
-9.000020
 20
-10.001982
 30
0.0
 10
-9.000017
 20
-10.001982
 30
0.0
 10
-9.097534
 20
-9.996620
 30
0.0
 10
-9.193316
 20
-9.980534
 30
0.0
 10
-9.286734
 20
-9.954569
 30
0.0
 10
-9.377160
 20
-9.919376
 30
0.0
 10
-9.463965
 20
-9.875519
 30
0.0
 10
-9.546520
 20
-9.823646
 30
0.0
 10
-9.624197
 20
-9.764380
 30
0.0
 10
-9.696366
 20
-9.698340
 30
0.0
 10
-9.762400
 20
-9.626175
 30
0.0
 10
-9.821669
 20
-9.548480
 30
0.0
 10
-9.873544
 20
-9.465930
 30
0.0
 10
-9.917398
 20
-9.379118
 30
0.0
 10
-9.952601
 20
-9.288694
 30
0.0
 10
-9.978523
 20
-9.195278
 30
0.0
 10
-9.994539
 20
-9.099492
 30
0.0
 10
-10.000017
 20
-9.001984
 30
0.0
 10
-10.000001
 20
-9.001984
 30
0.0
 10
-10.000001
 20
-8.645735
 30
0.0
 10
-10.000001
 20
-8.289486
 30
0.0
 10
-10.000001
 20
-7.933237
 30
0.0
 10
-10.000001
 20
-7.576988
 30
0.0
 10
-10.000001
 20
-7.220739
 30
0.0
 10
-10.000001
 20
-6.864490
 30
0.0
 10
-10.000001
 20
-6.508241
 30
0.0
 10
-10.000001
 20
-6.151992
 30
0.0
 10
-10.000001
 20
-5.795714
 30
0.0
 10
-10.000001
 20
-5.439465
 30
0.0
 10
-10.000001
 20
-5.083216
 30
0.0
 10
-10.000001
 20
-4.726967
 30
0.0
 10
-10.000001
 20
-4.370718
 30
0.0
 10
-10.000001
 20
-4.014469
 30
0.0
 10
-10.000001
 20
-3.658220
 30
0.0
 10
-10.000001
 20
-3.301970
 30
0.0
 10
-9.999989
 20
-3.304793
 30
0.0
 10
-9.998352
 20
-3.275526
 30
0.0
 10
-9.993548
 20
-3.246796
 30
0.0
 10
-9.985773
 20
-3.218856
 30
0.0
 10
-9.975212
 20
-3.191763
 30
0.0
 10
-9.962055
 20
-3.165798
 30
0.0
 10
-9.946494
 20
-3.140963
 30
0.0
 10
-9.928714
 20
-3.117538
 30
0.0
 10
-9.908904
 20
-3.095807
 30
0.0
 10
-9.887252
 20
-3.076052
 30
0.0
 10
-9.863949
 20
-3.058272
 30
0.0
 10
-9.839181
 20
-3.042749
 30
0.0
 10
-9.813141
 20
-3.029485
 30
0.0
 10
-9.786014
 20
-3.019043
 30
0.0
 10
-9.757989
 20
-3.011140
 30
0.0
 10
-9.729254
 20
-3.006343
 30
0.0
 10
-9.699999
 20
-3.003520
 30
0.0
 10
-9.700001
 20
-3.003295
 30
0.0
 10
-9.612502
 20
-3.003295
 30
0.0
 10
-9.525001
 20
-3.003295
 30
0.0
 10
-9.437502
 20
-3.003295
 30
0.0
 10
-9.350001
 20
-3.003295
 30
0.0
 10
-9.262501
 20
-3.003295
 30
0.0
 10
-9.175002
 20
-3.003295
 30
0.0
 10
-9.087501
 20
-3.003295
 30
0.0
 10
-9.000001
 20
-3.003295
 30
0.0
 10
-8.912502
 20
-3.003295
 30
0.0
 10
-8.825001
 20
-3.003295
 30
0.0
 10
-8.737502
 20
-3.003295
 30
0.0
 10
-8.650001
 20
-3.003295
 30
0.0
 10
-8.562501
 20
-3.003295
 30
0.0
 10
-8.475002
 20
-3.003295
 30
0.0
 10
-8.387501
 20
-3.003295
 30
0.0
 10
-8.300001
 20
-3.003295
 30
0.0
 10
-8.299981
 20
-3.003520
 30
0.0
 10
-8.270726
 20
-3.006343
 30
0.0
 10
-8.241992
 20
-3.011140
 30
0.0
 10
-8.213967
 20
-3.019043
 30
0.0
 10
-8.186840
 20
-3.029485
 30
0.0
 10
-8.160799
 20
-3.042749
 30
0.0
 10
-8.136031
 20
-3.058272
 30
0.0
 10
-8.112728
 20
-3.076052
 30
0.0
 10
-8.091076
 20
-3.095807
 30
0.0
 10
-8.071267
 20
-3.117538
 30
0.0
 10
-8.053487
 20
-3.140963
 30
0.0
 10
-8.037925
 20
-3.165798
 30
0.0
 10
-8.024768
 20
-3.191763
 30
0.0
 10
-8.014207
 20
-3.218856
 30
0.0
 10
-8.006429
 20
-3.246796
 30
0.0
 10
-8.001626
 20
-3.275526
 30
0.0
 10
-7.999989
 20
-3.304793
 30
0.0
 10
-8.000001
 20
-3.301970
 30
0.0
 10
-8.000001
 20
-3.470711
 30
0.0
 10
-8.000001
 20
-3.639480
 30
0.0
 10
-8.000001
 20
-3.808221
 30
0.0
 10
-8.000001
 20
-3.976961
 30
0.0
 10
-8.000001
 20
-4.145730
 30
0.0
 10
-8.000001
 20
-4.314471
 30
0.0
 10
-8.000001
 20
-4.483212
 30
0.0
 10
-8.000001
 20
-4.651980
 30
0.0
 10
-8.000001
 20
-4.820721
 30
0.0
 10
-8.000001
 20
-4.989462
 30
0.0
 10
-8.000001
 20
-5.158202
 30
0.0
 10
-8.000001
 20
-5.326971
 30
0.0
 10
-8.000001
 20
-5.495712
 30
0.0
 10
-8.000001
 20
-5.664453
 30
0.0
 10
-8.000001
 20
-5.833222
 30
0.0
 10
-8.000001
 20
-6.001962
 30
0.0
 10
-8.000001
 20
-6.001962
 30
0.0
 10
-7.941293
 20
-6.001962
 30
0.0
 10
-7.882584
 20
-6.001962
 30
0.0
 10
-7.823875
 20
-6.001962
 30
0.0
 10
-7.765166
 20
-6.001962
 30
0.0
 10
-7.706458
 20
-6.001962
 30
0.0
 10
-7.647749
 20
-6.001962
 30
0.0
 10
-7.589040
 20
-6.001962
 30
0.0
 10
-7.530332
 20
-6.001962
 30
0.0
 10
-7.471623
 20
-6.001962
 30
0.0
 10
-7.412914
 20
-6.001962
 30
0.0
 10
-7.354205
 20
-6.001962
 30
0.0
 10
-7.295496
 20
-6.001962
 30
0.0
 10
-7.236788
 20
-6.001962
 30
0.0
 10
-7.178079
 20
-6.001962
 30
0.0
 10
-7.119370
 20
-6.001962
 30
0.0
 10
-7.060662
 20
-6.001962
 30
0.0
 10
-7.060641
 20
-6.001962
 30
0.0
 10
-6.869350
 20
-5.810672
 30
0.0
 10
-6.678059
 20
-5.619382
 30
0.0
 10
-6.486767
 20
-5.428092
 30
0.0
 10
-6.295476
 20
-5.236801
 30
0.0
 10
-6.104185
 20
-5.045511
 30
0.0
 10
-5.912894
 20
-4.854221
 30
0.0
 10
-5.721602
 20
-4.662931
 30
0.0
 10
-5.530311
 20
-4.471640
 30
0.0
 10
-5.339020
 20
-4.280350
 30
0.0
 10
-5.147729
 20
-4.089060
 30
0.0
 10
-4.956437
 20
-3.897770
 30
0.0
 10
-4.765146
 20
-3.706480
 30
0.0
 10
-4.573855
 20
-3.515189
 30
0.0
 10
-4.382563
 20
-3.323899
 30
0.0
 10
-4.191272
 20
-3.132609
 30
0.0
 10
-3.999981
 20
-2.941319
 30
0.0
 10
-3.999981
 20
-2.941319
 30
0.0
 10
-3.999981
 20
-2.913943
 30
0.0
 10
-3.999981
 20
-2.886568
 30
0.0
 10
-3.999981
 20
-2.859192
 30
0.0
 10
-3.999981
 20
-2.831816
 30
0.0
 10
-3.999981
 20
-2.804441
 30
0.0
 10
-3.999981
 20
-2.777065
 30
0.0
 10
-3.999981
 20
-2.749690
 30
0.0
 10
-3.999981
 20
-2.722314
 30
0.0
 10
-3.999981
 20
-2.694939
 30
0.0
 10
-3.999981
 20
-2.667563
 30
0.0
 10
-3.999981
 20
-2.640188
 30
0.0
 10
-3.999981
 20
-2.612812
 30
0.0
 10
-3.999981
 20
-2.585436
 30
0.0
 10
-3.999981
 20
-2.558061
 30
0.0
 10
-3.999981
 20
-2.530685
 30
0.0
 10
-3.999981
 20
-2.503310
 30
0.0
 10
-3.999991
 20
-2.503310
 30
0.0
 10
-3.984426
 20
-2.423243
 30
0.0
 10
-3.968861
 20
-2.343177
 30
0.0
 10
-3.953297
 20
-2.263110
 30
0.0
 10
-3.937732
 20
-2.183044
 30
0.0
 10
-3.922168
 20
-2.102949
 30
0.0
 10
-3.906603
 20
-2.022883
 30
0.0
 10
-3.891039
 20
-1.942816
 30
0.0
 10
-3.875474
 20
-1.862750
 30
0.0
 10
-3.859910
 20
-1.782684
 30
0.0
 10
-3.844345
 20
-1.702617
 30
0.0
 10
-3.828780
 20
-1.622551
 30
0.0
 10
-3.813216
 20
-1.542484
 30
0.0
 10
-3.797651
 20
-1.462390
 30
0.0
 10
-3.782087
 20
-1.382323
 30
0.0
 10
-3.766522
 20
-1.302257
 30
0.0
 10
-3.750958
 20
-1.222190
 30
0.0
 10
-3.750967
 20
-1.222190
 30
0.0
 10
-3.762344
 20
-1.202435
 30
0.0
 10
-3.773720
 20
-1.182679
 30
0.0
 10
-3.785096
 20
-1.162924
 30
0.0
 10
-3.796473
 20
-1.143168
 30
0.0
 10
-3.807849
 20
-1.123412
 30
0.0
 10
-3.819226
 20
-1.103657
 30
0.0
 10
-3.830602
 20
-1.083901
 30
0.0
 10
-3.841978
 20
-1.064146
 30
0.0
 10
-3.853355
 20
-1.044390
 30
0.0
 10
-3.864731
 20
-1.024635
 30
0.0
 10
-3.876107
 20
-1.004879
 30
0.0
 10
-3.887484
 20
-0.985124
 30
0.0
 10
-3.898860
 20
-0.965368
 30
0.0
 10
-3.910237
 20
-0.945612
 30
0.0
 10
-3.921613
 20
-0.925857
 30
0.0
 10
-3.932989
 20
-0.906101
 30
0.0
 10
-3.933003
 20
-0.906101
 30
0.0
 10
-3.948345
 20
-0.877230
 30
0.0
 10
-3.961641
 20
-0.847427
 30
0.0
 10
-3.972890
 20
-0.816778
 30
0.0
 10
-3.982093
 20
-0.785451
 30
0.0
 10
-3.989253
 20
-0.753588
 30
0.0
 10
-3.994367
 20
-0.721330
 30
0.0
 10
-3.997435
 20
-0.688790
 30
0.0
 10
-3.998451
 20
-0.656109
 30
0.0
 10
-3.997435
 20
-0.623399
 30
0.0
 10
-3.994367
 20
-0.590859
 30
0.0
 10
-3.989253
 20
-0.558601
 30
0.0
 10
-3.982093
 20
-0.526738
 30
0.0
 10
-3.972890
 20
-0.495412
 30
0.0
 10
-3.961641
 20
-0.464762
 30
0.0
 10
-3.948345
 20
-0.434960
 30
0.0
 10
-3.933003
 20
-0.406088
 30
0.0
 10
-3.933004
 20
-0.401657
 30
0.0
  0
LWPOLYLINE
  5
102
100
AcDbEntity
  8
0
 62
7
100
AcDbPolyline
 90
289
 70
0
 10
6.999999
 20
8.000239
 30
0.0
 10
6.218749
 20
8.000239
 30
0.0
 10
5.437499
 20
8.000239
 30
0.0
 10
4.656249
 20
8.000239
 30
0.0
 10
3.874999
 20
8.000239
 30
0.0
 10
3.093749
 20
8.000239
 30
0.0
 10
2.312499
 20
8.000239
 30
0.0
 10
1.531249
 20
8.000239
 30
0.0
 10
0.749999
 20
8.000239
 30
0.0
 10
-0.031251
 20
8.000239
 30
0.0
 10
-0.812501
 20
8.000239
 30
0.0
 10
-1.593751
 20
8.000239
 30
0.0
 10
-2.375001
 20
8.000239
 30
0.0
 10
-3.156251
 20
8.000239
 30
0.0
 10
-3.937502
 20
8.000239
 30
0.0
 10
-4.718751
 20
8.000239
 30
0.0
 10
-5.500001
 20
8.000239
 30
0.0
 10
-5.500023
 20
8.000239
 30
0.0
 10
-5.548782
 20
7.997417
 30
0.0
 10
-5.596674
 20
7.989515
 30
0.0
 10
-5.643384
 20
7.976533
 30
0.0
 10
-5.688597
 20
7.959035
 30
0.0
 10
-5.732000
 20
7.937022
 30
0.0
 10
-5.773278
 20
7.911057
 30
0.0
 10
-5.812117
 20
7.881424
 30
0.0
 10
-5.848202
 20
7.848404
 30
0.0
 10
-5.881219
 20
7.812336
 30
0.0
 10
-5.910853
 20
7.773474
 30
0.0
 10
-5.936789
 20
7.732213
 30
0.0
 10
-5.958715
 20
7.688807
 30
0.0
 10
-5.976315
 20
7.643595
 30
0.0
 10
-5.989274
 20
7.596887
 30
0.0
 10
-5.997281
 20
7.548994
 30
0.0
 10
-6.000018
 20
7.500226
 30
0.0
 10
-6.000020
 20
7.500198
 30
0.0
 10
-6.000020
 20
7.485805
 30
0.0
 10
-6.000020
 20
7.471129
 30
0.0
 10
-6.000020
 20
7.456736
 30
0.0
 10
-6.000020
 20
7.442342
 30
0.0
 10
-6.000020
 20
7.427667
 30
0.0
 10
-6.000020
 20
7.413274
 30
0.0
 10
-6.000020
 20
7.398880
 30
0.0
 10
-6.000020
 20
7.384205
 30
0.0
 10
-6.000020
 20
7.369811
 30
0.0
 10
-6.000020
 20
7.355418
 30
0.0
 10
-6.000020
 20
7.341025
 30
0.0
 10
-6.000020
 20
7.326349
 30
0.0
 10
-6.000020
 20
7.311956
 30
0.0
 10
-6.000020
 20
7.297562
 30
0.0
 10
-6.000020
 20
7.282887
 30
0.0
 10
-6.000020
 20
7.268494
 30
0.0
 10
-6.000010
 20
7.268494
 30
0.0
 10
-5.999389
 20
7.243940
 30
0.0
 10
-5.997526
 20
7.219387
 30
0.0
 10
-5.994439
 20
7.195116
 30
0.0
 10
-5.990155
 20
7.170845
 30
0.0
 10
-5.984697
 20
7.146856
 30
0.0
 10
-5.978087
 20
7.123149
 30
0.0
 10
-5.970348
 20
7.100007
 30
0.0
 10
-5.961504
 20
7.077147
 30
0.0
 10
-5.951575
 20
7.054851
 30
0.0
 10
-5.940582
 20
7.032838
 30
0.0
 10
-5.928551
 20
7.011389
 30
0.0
 10
-5.915501
 20
6.990787
 30
0.0
 10
-5.901458
 20
6.970749
 30
0.0
 10
-5.886441
 20
6.951276
 30
0.0
 10
-5.870473
 20
6.932649
 30
0.0
 10
-5.853576
 20
6.914869
 30
0.0
 10
-5.853573
 20
6.914869
 30
0.0
 10
-5.680587
 20
6.741895
 30
0.0
 10
-5.507602
 20
6.568893
 30
0.0
 10
-5.334616
 20
6.395919
 30
0.0
 10
-5.161631
 20
6.222917
 30
0.0
 10
-4.988646
 20
6.049943
 30
0.0
 10
-4.815660
 20
5.876940
 30
0.0
 10
-4.642675
 20
5.703966
 30
0.0
 10
-4.469689
 20
5.530964
 30
0.0
 10
-4.296704
 20
5.357990
 30
0.0
 10
-4.123719
 20
5.185016
 30
0.0
 10
-3.950733
 20
5.012014
 30
0.0
 10
-3.777748
 20
4.839040
 30
0.0
 10
-3.604762
 20
4.666038
 30
0.0
 10
-3.431777
 20
4.493064
 30
0.0
 10
-3.258791
 20
4.320062
 30
0.0
 10
-3.085806
 20
4.147088
 30
0.0
 10
-3.085798
 20
4.147088
 30
0.0
 10
-3.068013
 20
4.130154
 30
0.0
 10
-3.049400
 20
4.114068
 30
0.0
 10
-3.030017
 20
4.099110
 30
0.0
 10
-3.009914
 20
4.084999
 30
0.0
 10
-2.989148
 20
4.072016
 30
0.0
 10
-2.967770
 20
4.059881
 30
0.0
 10
-2.945836
 20
4.048874
 30
0.0
 10
-2.923399
 20
4.038996
 30
0.0
 10
-2.900511
 20
4.030248
 30
0.0
 10
-2.877230
 20
4.022628
 30
0.0
 10
-2.853606
 20
4.016136
 30
0.0
 10
-2.829693
 20
4.010774
 30
0.0
 10
-2.805547
 20
4.006541
 30
0.0
 10
-2.781221
 20
4.003436
 30
0.0
 10
-2.756768
 20
4.000614
 30
0.0
 10
-2.732243
 20
4.000614
 30
0.0
 10
-2.732235
 20
4.000614
 30
0.0
 10
-2.498970
 20
4.000614
 30
0.0
 10
-2.265705
 20
4.000614
 30
0.0
 10
-2.032441
 20
4.000614
 30
0.0
 10
-1.799176
 20
4.000614
 30
0.0
 10
-1.565912
 20
4.000614
 30
0.0
 10
-1.332647
 20
4.000614
 30
0.0
 10
-1.099383
 20
4.000614
 30
0.0
 10
-0.866118
 20
4.000614
 30
0.0
 10
-0.632853
 20
4.000614
 30
0.0
 10
-0.399589
 20
4.000614
 30
0.0
 10
-0.166324
 20
4.000614
 30
0.0
 10
0.066940
 20
4.000614
 30
0.0
 10
0.300205
 20
4.000614
 30
0.0
 10
0.533469
 20
4.000614
 30
0.0
 10
0.766734
 20
4.000614
 30
0.0
 10
0.999999
 20
4.000614
 30
0.0
 10
0.999998
 20
4.000473
 30
0.0
 10
1.147150
 20
3.996804
 30
0.0
 10
1.293865
 20
3.985515
 30
0.0
 10
1.439821
 20
3.966889
 30
0.0
 10
1.584696
 20
3.941206
 30
0.0
 10
1.728166
 20
3.908440
 30
0.0
 10
1.869909
 20
3.868788
 30
0.0
 10
2.009602
 20
3.822363
 30
0.0
 10
2.146921
 20
3.769305
 30
0.0
 10
2.281545
 20
3.709728
 30
0.0
 10
2.413151
 20
3.643772
 30
0.0
 10
2.541415
 20
3.571580
 30
0.0
 10
2.666014
 20
3.493292
 30
0.0
 10
2.786627
 20
3.409020
 30
0.0
 10
2.902930
 20
3.318906
 30
0.0
 10
3.014601
 20
3.223092
 30
0.0
 10
3.121317
 20
3.121718
 30
0.0
 10
3.222705
 20
3.015010
 30
0.0
 10
3.318521
 20
2.903334
 30
0.0
 10
3.408632
 20
2.787030
 30
0.0
 10
3.492903
 20
2.666409
 30
0.0
 10
3.571200
 20
2.541808
 30
0.0
 10
3.643391
 20
2.413538
 30
0.0
 10
3.709341
 20
2.281937
 30
0.0
 10
3.768917
 20
2.147317
 30
0.0
 10
3.821984
 20
2.009988
 30
0.0
 10
3.868410
 20
1.870316
 30
0.0
 10
3.908060
 20
1.728556
 30
0.0
 10
3.940801
 20
1.585102
 30
0.0
 10
3.966500
 20
1.440210
 30
0.0
 10
3.985022
 20
1.294272
 30
0.0
 10
3.996232
 20
1.147545
 30
0.0
 10
4.000000
 20
1.000394
 30
0.0
 10
3.999998
 20
1.000620
 30
0.0
 10
3.999998
 20
0.767364
 30
0.0
 10
3.999998
 20
0.534079
 30
0.0
 10
3.999998
 20
0.300822
 30
0.0
 10
3.999998
 20
0.067565
 30
0.0
 10
3.999998
 20
-0.165691
 30
0.0
 10
3.999998
 20
-0.398976
 30
0.0
 10
3.999998
 20
-0.632233
 30
0.0
 10
3.999998
 20
-0.865490
 30
0.0
 10
3.999998
 20
-1.098746
 30
0.0
 10
3.999998
 20
-1.332031
 30
0.0
 10
3.999998
 20
-1.565288
 30
0.0
 10
3.999998
 20
-1.798544
 30
0.0
 10
3.999998
 20
-2.031801
 30
0.0
 10
3.999998
 20
-2.265086
 30
0.0
 10
3.999998
 20
-2.498343
 30
0.0
 10
3.999998
 20
-2.731599
 30
0.0
 10
3.999998
 20
-2.731740
 30
0.0
 10
4.000619
 20
-2.756294
 30
0.0
 10
4.002482
 20
-2.780847
 30
0.0
 10
4.005569
 20
-2.805118
 30
0.0
 10
4.009851
 20
-2.829389
 30
0.0
 10
4.015306
 20
-2.853378
 30
0.0
 10
4.021913
 20
-2.877085
 30
0.0
 10
4.029651
 20
-2.900227
 30
0.0
 10
4.038496
 20
-2.923087
 30
0.0
 10
4.048425
 20
-2.945665
 30
0.0
 10
4.059417
 20
-2.967678
 30
0.0
 10
4.071448
 20
-2.989127
 30
0.0
 10
4.084498
 20
-3.010012
 30
0.0
 10
4.098545
 20
-3.030049
 30
0.0
 10
4.113564
 20
-3.049523
 30
0.0
 10
4.129535
 20
-3.068149
 30
0.0
 10
4.146435
 20
-3.085929
 30
0.0
 10
4.146427
 20
-3.085929
 30
0.0
 10
4.319413
 20
-3.258903
 30
0.0
 10
4.492398
 20
-3.431906
 30
0.0
 10
4.665384
 20
-3.604880
 30
0.0
 10
4.838369
 20
-3.777882
 30
0.0
 10
5.011355
 20
-3.950856
 30
0.0
 10
5.184340
 20
-4.123830
 30
0.0
 10
5.357325
 20
-4.296832
 30
0.0
 10
5.530311
 20
-4.469806
 30
0.0
 10
5.703296
 20
-4.642780
 30
0.0
 10
5.876282
 20
-4.815782
 30
0.0
 10
6.049267
 20
-4.988756
 30
0.0
 10
6.222252
 20
-5.161758
 30
0.0
 10
6.395238
 20
-5.334732
 30
0.0
 10
6.568223
 20
-5.507706
 30
0.0
 10
6.741209
 20
-5.680709
 30
0.0
 10
6.914194
 20
-5.853683
 30
0.0
 10
6.914195
 20
-5.853683
 30
0.0
 10
6.931981
 20
-5.870616
 30
0.0
 10
6.950593
 20
-5.886703
 30
0.0
 10
6.969976
 20
-5.901660
 30
0.0
 10
6.990079
 20
-5.915772
 30
0.0
 10
7.010845
 20
-5.928754
 30
0.0
 10
7.032223
 20
-5.940889
 30
0.0
 10
7.054158
 20
-5.951896
 30
0.0
 10
7.076594
 20
-5.961774
 30
0.0
 10
7.099483
 20
-5.970523
 30
0.0
 10
7.122763
 20
-5.978143
 30
0.0
 10
7.146388
 20
-5.984634
 30
0.0
 10
7.170301
 20
-5.989996
 30
0.0
 10
7.194448
 20
-5.994229
 30
0.0
 10
7.218775
 20
-5.997334
 30
0.0
 10
7.243227
 20
-6.000156
 30
0.0
 10
7.267752
 20
-6.000156
 30
0.0
 10
7.267747
 20
-6.000156
 30
0.0
 10
7.282262
 20
-6.000156
 30
0.0
 10
7.296777
 20
-6.000156
 30
0.0
 10
7.311292
 20
-6.000156
 30
0.0
 10
7.325806
 20
-6.000156
 30
0.0
 10
7.340321
 20
-6.000156
 30
0.0
 10
7.354836
 20
-6.000156
 30
0.0
 10
7.369350
 20
-6.000156
 30
0.0
 10
7.383865
 20
-6.000156
 30
0.0
 10
7.398380
 20
-6.000156
 30
0.0
 10
7.412894
 20
-6.000156
 30
0.0
 10
7.427409
 20
-6.000156
 30
0.0
 10
7.441924
 20
-6.000156
 30
0.0
 10
7.456438
 20
-6.000156
 30
0.0
 10
7.470953
 20
-6.000156
 30
0.0
 10
7.485468
 20
-6.000156
 30
0.0
 10
7.499982
 20
-6.000156
 30
0.0
 10
7.499985
 20
-6.000156
 30
0.0
 10
7.548743
 20
-5.997334
 30
0.0
 10
7.596633
 20
-5.989432
 30
0.0
 10
7.643341
 20
-5.976449
 30
0.0
 10
7.688553
 20
-5.958952
 30
0.0
 10
7.731955
 20
-5.936938
 30
0.0
 10
7.773233
 20
-5.910974
 30
0.0
 10
7.812070
 20
-5.881340
 30
0.0
 10
7.848155
 20
-5.848349
 30
0.0
 10
7.881172
 20
-5.812252
 30
0.0
 10
7.910806
 20
-5.773419
 30
0.0
 10
7.936745
 20
-5.732130
 30
0.0
 10
7.958671
 20
-5.688752
 30
0.0
 10
7.976273
 20
-5.643540
 30
0.0
 10
7.989236
 20
-5.596832
 30
0.0
 10
7.997245
 20
-5.548939
 30
0.0
 10
7.999983
 20
-5.500171
 30
0.0
 10
7.999999
 20
-5.500171
 30
0.0
 10
7.999999
 20
-4.718924
 30
0.0
 10
7.999999
 20
-3.937676
 30
0.0
 10
7.999999
 20
-3.156428
 30
0.0
 10
7.999999
 20
-2.375181
 30
0.0
 10
7.999999
 20
-1.593933
 30
0.0
 10
7.999999
 20
-0.812686
 30
0.0
 10
7.999999
 20
-0.031438
 30
0.0
 10
7.999999
 20
0.749809
 30
0.0
 10
7.999999
 20
1.531085
 30
0.0
 10
7.999999
 20
2.312333
 30
0.0
 10
7.999999
 20
3.093580
 30
0.0
 10
7.999999
 20
3.874828
 30
0.0
 10
7.999999
 20
4.656075
 30
0.0
 10
7.999999
 20
5.437323
 30
0.0
 10
7.999999
 20
6.218570
 30
0.0
 10
7.999999
 20
6.999818
 30
0.0
 10
7.999983
 20
6.999818
 30
0.0
 10
7.994508
 20
7.097326
 30
0.0
 10
7.978494
 20
7.193112
 30
0.0
 10
7.952572
 20
7.286528
 30
0.0
 10
7.917371
 20
7.376980
 30
0.0
 10
7.873518
 20
7.463763
 30
0.0
 10
7.821643
 20
7.546341
 30
0.0
 10
7.762374
 20
7.624009
 30
0.0
 10
7.696341
 20
7.696173
 30
0.0
 10
7.624171
 20
7.762213
 30
0.0
 10
7.546494
 20
7.821480
 30
0.0
 10
7.463937
 20
7.873380
 30
0.0
 10
7.377131
 20
7.917210
 30
0.0
 10
7.286704
 20
7.952431
 30
0.0
 10
7.193285
 20
7.978395
 30
0.0
 10
7.097501
 20
7.994482
 30
0.0
 10
6.999983
 20
7.999844
 30
0.0
 10
6.999999
 20
8.000239
 30
0.0
  0
ENDSEC
  0
SECTION
  2
OBJECTS
  0
DICTIONARY
  5
C
330
0
100
AcDbDictionary
  3
ACAD_GROUP
350
D
  3
ACAD_MLINESTYLE
350
17
  0
DICTIONARY
  5
D
330
C
100
AcDbDictionary
  0
DICTIONARY
  5
1A
330
C
100
AcDbDictionary
  0
DICTIONARY
  5
17
330
C
100
AcDbDictionary
  3
STANDARD
350
18
  0
DICTIONARY
  5
19
330
C
100
AcDbDictionary
  0
ENDSEC
  0
EOF
